<svg xmlns="http://www.w3.org/2000/svg" width="48.572" height="48.572" viewBox="0 0 48.572 48.572">
  <g id="vuesax_outline_frame" data-name="vuesax/outline/frame" transform="translate(-108 -252)">
    <g id="frame" transform="translate(108 252)">
      <path id="Vector" d="M10.827,20.987h-.162a1.1,1.1,0,0,0-.364,0,10.413,10.413,0,1,1,.587,0ZM10.5,3.036a7.46,7.46,0,0,0-.283,14.916,3.341,3.341,0,0,1,.648,0A7.462,7.462,0,0,0,10.5,3.036Z" transform="translate(13.781 2.53)" fill="#009fe3"/>
      <path id="Vector-2" data-name="Vector" d="M0,0H48.572V48.572H0Z" fill="none" opacity="0"/>
      <path id="Vector-3" data-name="Vector" d="M15.32,20.466A19.991,19.991,0,0,1,4.351,17.43C1.538,15.568,0,13.018,0,10.246S1.538,4.9,4.351,3.021c6.071-4.027,15.907-4.027,21.938,0,2.793,1.862,4.351,4.412,4.351,7.185S29.1,15.548,26.289,17.43A20.039,20.039,0,0,1,15.32,20.466ZM6.031,5.571c-1.943,1.3-3,2.955-3,4.7,0,1.72,1.073,3.38,3,4.655,5.039,3.38,13.539,3.38,18.579,0,1.943-1.3,3-2.955,3-4.7,0-1.72-1.073-3.38-3-4.655C19.57,2.211,11.07,2.211,6.031,5.571Z" transform="translate(9.309 25.171)" fill="#009fe3"/>
    </g>
  </g>
</svg>
