<svg width="29" height="29" viewBox="0 0 29 29" fill="none" xmlns="http://www.w3.org/2000/svg">
<path d="M15.938 7.25H8.20466C7.8905 7.25 7.58841 7.26208 7.29841 7.29833C4.048 7.57625 2.41675 9.4975 2.41675 13.0379V17.8713C2.41675 22.7046 4.35008 23.6592 8.20466 23.6592H8.688C8.95383 23.6592 9.30425 23.8404 9.46133 24.0458L10.9113 25.9792C11.5517 26.8371 12.5909 26.8371 13.2313 25.9792L14.6813 24.0458C14.8626 23.8042 15.1526 23.6592 15.4547 23.6592H15.938C19.4784 23.6592 21.3997 22.04 21.6776 18.7775C21.7138 18.4875 21.7259 18.1854 21.7259 17.8713V13.0379C21.7259 9.18333 19.7926 7.25 15.938 7.25ZM7.85425 16.9167C7.17758 16.9167 6.64591 16.3729 6.64591 15.7083C6.64591 15.0437 7.18966 14.5 7.85425 14.5C8.51883 14.5 9.06258 15.0437 9.06258 15.7083C9.06258 16.3729 8.51883 16.9167 7.85425 16.9167ZM12.0713 16.9167C11.3947 16.9167 10.863 16.3729 10.863 15.7083C10.863 15.0437 11.4067 14.5 12.0713 14.5C12.7359 14.5 13.2797 15.0437 13.2797 15.7083C13.2797 16.3729 12.748 16.9167 12.0713 16.9167ZM16.3005 16.9167C15.6238 16.9167 15.0922 16.3729 15.0922 15.7083C15.0922 15.0437 15.6359 14.5 16.3005 14.5C16.9651 14.5 17.5088 15.0437 17.5088 15.7083C17.5088 16.3729 16.9651 16.9167 16.3005 16.9167Z" fill="white"/>
<path d="M26.5593 8.20393V13.0373C26.5593 15.4539 25.8101 17.0973 24.3118 18.0035C23.9493 18.221 23.5264 17.931 23.5264 17.5081L23.5385 13.0373C23.5385 8.20393 20.7714 5.43685 15.9381 5.43685L8.5793 5.44893C8.15638 5.44893 7.86638 5.02602 8.08388 4.66352C8.99013 3.16518 10.6335 2.41602 13.0381 2.41602H20.7714C24.626 2.41602 26.5593 4.34935 26.5593 8.20393Z" fill="white"/>
</svg>
